<!DOCTYPE svg PUBLIC "-//W3C//DTD SVG 1.1//EN" "http://www.w3.org/Graphics/SVG/1.1/DTD/svg11.dtd">
<!-- Uploaded to: SVG Repo, www.svgrepo.com, Transformed by: SVG Repo Mixer Tools -->
<svg fill="#978667" height="800px" width="800px" version="1.1" id="Capa_1" xmlns="http://www.w3.org/2000/svg" xmlns:xlink="http://www.w3.org/1999/xlink" viewBox="0 0 343.832 343.832" xml:space="preserve" stroke="#978667">
<g id="SVGRepo_bgCarrier" stroke-width="0"/>
<g id="SVGRepo_tracerCarrier" stroke-linecap="round" stroke-linejoin="round"/>
<g id="SVGRepo_iconCarrier"> <path d="M285.378,0c-27.762,0-50.897,20.119-55.635,46.54H11.916c-3.93,0-7.494,2.302-9.113,5.882 c-1.617,3.581-0.988,7.777,1.607,10.727l125.1,142.096c1.898,2.158,4.633,3.393,7.506,3.393h1.654 c0.093,38.031,0.093,76.684,0.002,115.195h-38.99c-5.523,0-10,4.478-10,10c0,5.523,4.477,10,10,10h48.938c0.01,0,0.019,0,0.028,0 h48.965c5.522,0,10-4.477,10-10c0-5.522-4.478-10-10-10h-38.94c0.091-38.514,0.091-77.164-0.002-115.195h1.607 c2.873,0,5.607-1.234,7.506-3.391l88.33-100.331c8.767,5.307,18.867,8.161,29.256,8.161c0.002,0,0.006,0,0.009,0 c31.175,0,56.538-25.361,56.538-56.536C341.916,25.364,316.553,0,285.378,0z M263.251,66.54l-16.114,18.303 c-0.004,0.006-0.01,0.011-0.016,0.017c-0.005,0.006-0.009,0.012-0.014,0.018l-7.219,8.199H57.405L34.043,66.54H263.251z M155.758,188.637h-14.223l-66.522-75.561h147.268L155.758,188.637z M285.377,93.076c-0.003,0-0.004,0-0.007,0 c-5.483,0-10.842-1.233-15.708-3.552l23.222-26.376c2.597-2.949,3.225-7.146,1.606-10.727c-1.617-3.58-5.184-5.882-9.112-5.882 h-35.136C254.603,31.239,268.697,20,285.378,20c20.148,0,36.538,16.392,36.538,36.54C321.916,76.687,305.525,93.076,285.377,93.076z "/> </g>
</svg>