<!DOCTYPE svg PUBLIC "-//W3C//DTD SVG 1.1//EN" "http://www.w3.org/Graphics/SVG/1.1/DTD/svg11.dtd">
<!-- Uploaded to: SVG Repo, www.svgrepo.com, Transformed by: SVG Repo Mixer Tools -->
<svg version="1.1" id="Icons" xmlns="http://www.w3.org/2000/svg" xmlns:xlink="http://www.w3.org/1999/xlink" viewBox="0 0 32 32" xml:space="preserve" width="800px" height="800px" fill="#978667" stroke="#978667">
<g id="SVGRepo_bgCarrier" stroke-width="0"/>
<g id="SVGRepo_tracerCarrier" stroke-linecap="round" stroke-linejoin="round"/>
<g id="SVGRepo_iconCarrier"> <style type="text/css"> .st0{fill:none;stroke:;stroke-width:2;stroke-linecap:round;stroke-linejoin:round;stroke-miterlimit:10;} </style> <path class="st0" d="M29,28.5c-1-0.8-2.7-0.8-3.7,0l0,0c-1,0.8-2.7,0.8-3.7,0l0,0c-1-0.8-2.7-0.8-3.7,0l0,0c-1,0.8-2.7,0.8-3.7,0 l0,0c-1-0.8-2.7-0.8-3.7,0l0,0c-1,0.8-2.7,0.8-3.7,0l0,0c-1-0.8-2.7-0.8-3.7,0"/> <path class="st0" d="M29,23.5c-1-0.8-2.7-0.8-3.7,0l0,0c-1,0.8-2.7,0.8-3.7,0l0,0c-1-0.8-2.7-0.8-3.7,0l0,0c-1,0.8-2.7,0.8-3.7,0 l0,0c-1-0.8-2.7-0.8-3.7,0l0,0c-1,0.8-2.7,0.8-3.7,0l0,0c-1-0.8-2.7-0.8-3.7,0"/> <path class="st0" d="M11,23V6.5C11,4.6,12.6,3,14.5,3h0C16.4,3,18,4.6,18,6.5V8"/> <path class="st0" d="M22,23V6.5C22,4.6,23.6,3,25.5,3h0C27.4,3,29,4.6,29,6.5V8"/> <line class="st0" x1="14" y1="12" x2="22" y2="12"/> <line class="st0" x1="14" y1="16" x2="22" y2="16"/> <line class="st0" x1="14" y1="20" x2="22" y2="20"/> </g>
</svg>